# xmcd
#
# Track frame offsets:
#	150
#	10187
#	24152
#	37786
#	51434
#	63853
#	73129
#	86852
#	100379
#	109240
#	123154
#	137200
#	151658
#	161900
#
# Disc length: 2273 seconds
#
# Revision: 0
# Processed by: cddbd v1.5.1PL0 Copyright (c) Steve Scherf et al.
# Submitted via: audiograbber 1.83.01
#
DISCID=b508df0e
DTITLE=Irvin Eby - How Much Time
DYEAR=2005
DGENRE=Bluegrass
TTITLE0=The Lights Are On At Home
TTITLE1=How Much Time
TTITLE2=Let's Press On
TTITLE3=The Many Mansions
TTITLE4=The Candle of the Lord
TTITLE5=Come On Home
TTITLE6=Where Roses Never Fade
TTITLE7=The Sweet by and by
TTITLE8=Come On In
TTITLE9=What God Will Do
TTITLE10=All For Him
TTITLE11=Jesus Is The Well
TTITLE12=Unclouded Day
TTITLE13=Close To Home
EXTD=
EXTT0=
EXTT1=
EXTT2=
EXTT3=
EXTT4=
EXTT5=
EXTT6=
EXTT7=
EXTT8=
EXTT9=
EXTT10=
EXTT11=
EXTT12=
EXTT13=
PLAYORDER=
